<?xml version="1.0" standalone="no"?><!DOCTYPE svg PUBLIC "-//W3C//DTD SVG 1.1//EN" "http://www.w3.org/Graphics/SVG/1.1/DTD/svg11.dtd"><svg t="1682232500653" class="icon" viewBox="0 0 1024 1024" version="1.1" xmlns="http://www.w3.org/2000/svg" p-id="35838" xmlns:xlink="http://www.w3.org/1999/xlink" width="200" height="200"><path d="M742.453 64c83.117 4.859 158.046 45.887 196.824 137.12 39.395 92.698 21.86 178.919-46.116 252.568-48.125 52.056-99.802 100.874-150.321 150.693-21.938 21.671-57.085 22.365-76.088 2.391-19.234-20.206-17.148-47.969 5.948-71.182 49.592-49.743 99.88-98.868 148.93-149.073 73.925-75.655 41.096-195.963-61.024-223.11-42.485-11.259-83.271-3.47-115.56 26.607-51.987 48.355-100.884 99.871-152.639 148.303-10.968 10.257-29.121 19.125-43.335 18.2-38.082-2.314-57.316-48.432-30.975-75.886 56.621-58.997 114.401-117.069 175.194-171.67C630.292 75.722 678.494 64.308 742.453 64zM64 729.779c0.386-63.624 22.556-118.611 67.127-163.958 49.206-50.128 99.184-99.485 149.085-148.919 23.715-23.522 52.837-25.295 72.92-5.09 20.857 21.054 18.849 47.583-5.87 72.416-47.507 47.66-95.785 94.704-142.828 142.904-58.167 59.46-60.639 139.741-7.03 193.649 51.292 51.593 136.108 51.824 189.717-0.386 48.742-47.506 96.171-96.4 144.76-143.984 29.198-28.534 73.538-18.354 81.262 20.052 2.781 13.804-2.78 34.627-12.36 44.73-52.835 55.68-105.595 111.824-163.143 162.337-70.449 61.85-153.025 72.108-239.077 34.627C115.369 901.911 64.232 820.241 64 729.78z m644.542-362.85c-3.09 5.783-6.643 18.277-14.676 26.451-96.944 98.406-194.275 196.348-292.068 293.828-20.78 20.746-50.365 19.357-69.908-0.385-19.698-19.897-19.157-47.198 2.78-69.254 96.018-96.246 192.344-192.26 288.593-288.198 15.603-15.579 33.91-22.134 55.23-12.88 19.003 8.252 28.659 23.368 30.05 50.437z" fill="#000000" p-id="35839"></path></svg>