<?xml version="1.0" standalone="no"?><!DOCTYPE svg PUBLIC "-//W3C//DTD SVG 1.1//EN" "http://www.w3.org/Graphics/SVG/1.1/DTD/svg11.dtd"><svg t="1682254253951" class="icon" viewBox="0 0 1024 1024" version="1.1" xmlns="http://www.w3.org/2000/svg" p-id="25175" xmlns:xlink="http://www.w3.org/1999/xlink" width="200" height="200"><path d="M800 196.416c26.496 0 48 21.952 48 49.088v729.344a49.664 49.664 0 0 1-14.08 34.688c-18.688 19.2-49.088 19.2-67.84 0L512 749.696l-254.08 259.84a47.36 47.36 0 0 1-34.048 14.464 48.512 48.512 0 0 1-47.872-49.152V245.504c0-27.136 21.504-49.088 48-49.088zM848 0H176A48.576 48.576 0 0 0 128 49.088c0 27.136 21.504 49.088 48 49.088h672c26.496 0 48-21.952 48-49.088A48.576 48.576 0 0 0 848 0z" fill="#000000" p-id="25176"></path></svg>