<?xml version="1.0" standalone="no"?><!DOCTYPE svg PUBLIC "-//W3C//DTD SVG 1.1//EN" "http://www.w3.org/Graphics/SVG/1.1/DTD/svg11.dtd"><svg t="1682229469939" class="icon" viewBox="0 0 1024 1024" version="1.1" xmlns="http://www.w3.org/2000/svg" p-id="16058" xmlns:xlink="http://www.w3.org/1999/xlink" width="200" height="200"><path d="M460.55424 118.74304a121.52832 121.52832 0 0 1 84.3776-35.5328L811.8272 79.6672a123.51488 123.51488 0 0 1 124.928 120.79104l0.04096 2.60096-5.8368 266.40384a121.52832 121.52832 0 0 1-35.51232 83.31264L551.09632 897.1264c-47.65696 47.63648-125.17376 47.34976-173.1584-0.63488L117.26848 635.82208c-47.98464-47.98464-48.27136-125.50144-0.6144-173.1584L460.53376 118.74304z" fill="#131415" p-id="16059"></path><path d="M609.64864 259.29728a102.4 102.4 0 1 0 144.7936 144.81408 102.4 102.4 0 0 0-144.7936-144.7936z" fill="#FFFFFF" p-id="16060"></path></svg>