<?xml version="1.0" standalone="no"?><!DOCTYPE svg PUBLIC "-//W3C//DTD SVG 1.1//EN" "http://www.w3.org/Graphics/SVG/1.1/DTD/svg11.dtd"><svg t="1682518525669" class="icon" viewBox="0 0 1024 1024" version="1.1" xmlns="http://www.w3.org/2000/svg" p-id="11613" xmlns:xlink="http://www.w3.org/1999/xlink" width="200" height="200"><path d="M500.224 410.624c-43.52 0-71.168 37.376-71.168 100.352 0 62.464 27.648 102.4 71.168 102.4s71.168-39.936 71.168-102.4c0-62.976-27.648-100.352-71.168-100.352z" fill="#FD6513" p-id="11614"></path><path d="M921.6 0H102.4C46.08 0 0 46.08 0 102.4v819.2c0 56.32 46.08 102.4 102.4 102.4h819.2c56.32 0 102.4-46.08 102.4-102.4V102.4c0-56.32-46.08-102.4-102.4-102.4zM348.672 414.72H266.24v243.712H207.36V414.72h-81.92v-48.64h223.232V414.72z m151.552 248.832c-77.312 0-130.56-57.856-130.56-152.576 0-95.232 53.248-150.528 130.56-150.528s130.56 55.808 130.56 150.528-53.248 152.576-130.56 152.576z m285.184-109.056h-38.912v103.936h-58.368V366.08h95.744c64.512 0 114.688 22.528 114.688 91.648 0 66.56-50.176 96.768-113.152 96.768z" fill="#FD6513" p-id="11615"></path><path d="M779.776 412.16h-33.28v95.744h35.328c40.448 0 59.392-16.896 59.392-50.688s-20.992-45.056-61.44-45.056z" fill="#FD6513" p-id="11616"></path></svg>