<svg xmlns="http://www.w3.org/2000/svg" viewBox="0 0 1024 1024" version="1.1"><path d="M149.333333 874.666667V202.666667c0-64.8 52.533333-117.333333 117.333334-117.333334h277.333333c64.8 0 117.333333 52.533333 117.333333 117.333334v65.866666l149.952 77.653334A117.333333 117.333333 0 0 1 874.666667 450.378667V874.666667h32a32 32 0 0 1 0 64H117.333333a32 32 0 0 1 0-64h32z m512 0h149.333334V450.378667a53.333333 53.333333 0 0 0-28.8-47.36L661.333333 340.608V874.666667z m-448 0h384V202.666667a53.333333 53.333333 0 0 0-53.333333-53.333334H266.666667a53.333333 53.333333 0 0 0-53.333334 53.333334v672z" fill="#000000" p-id="5526"></path></svg>