<svg xmlns="http://www.w3.org/2000/svg" width="32" height="32" viewBox="0 0 32 32"><g fill="none"><g clip-path="url(#f591ids)"><path fill="url(#f591id0)" d="m5.92 17.988l-3.77-3.77c-.45-.45-.13-1.23.51-1.23h3.26v5Z"/><path fill="url(#f591idb)" fill-opacity=".75" d="m5.92 17.988l-3.77-3.77c-.45-.45-.13-1.23.51-1.23h3.26v5Z"/><path fill="url(#f591idc)" fill-opacity=".75" d="m5.92 17.988l-3.77-3.77c-.45-.45-.13-1.23.51-1.23h3.26v5Z"/><path fill="url(#f591id1)" d="m5.92 17.988l-3.77-3.77c-.45-.45-.13-1.23.51-1.23h3.26v5Z"/><path fill="url(#f591id2)" d="m25.93 17.988l3.77-3.77c.45-.45.13-1.23-.51-1.23h-3.26v5Z"/><path fill="url(#f591idd)" fill-opacity=".75" d="m25.93 17.988l3.77-3.77c.45-.45.13-1.23-.51-1.23h-3.26v5Z"/><path fill="url(#f591ide)" fill-opacity=".75" d="m25.93 17.988l3.77-3.77c.45-.45.13-1.23-.51-1.23h-3.26v5Z"/><g filter="url(#f591idm)"><circle cx="29.487" cy="13.51" r=".251" fill="#fff"/></g><path fill="url(#f591id3)" d="M25.987 10.465c-.708-4.859-4.99-8.477-10.041-8.477S6.624 5.606 5.905 10.465L3.965 27.52c-.175 1.14.595 2.29 1.776 2.44c1.026.13 1.574.092 2.885-.96c1.345-1.31 3.532-1.31 4.876 0c1.345 1.31 3.532 1.31 4.877 0c1.345-1.31 3.532-1.31 4.877 0c.719.7 1.663 1.02 2.597.98c1.294-.06 2.249-1.23 2.064-2.48l-1.93-17.035Z"/><path fill="url(#f591id4)" d="M25.987 10.465c-.708-4.859-4.99-8.477-10.041-8.477S6.624 5.606 5.905 10.465L3.965 27.52c-.175 1.14.595 2.29 1.776 2.44c1.026.13 1.574.092 2.885-.96c1.345-1.31 3.532-1.31 4.876 0c1.345 1.31 3.532 1.31 4.877 0c1.345-1.31 3.532-1.31 4.877 0c.719.7 1.663 1.02 2.597.98c1.294-.06 2.249-1.23 2.064-2.48l-1.93-17.035Z"/><path fill="url(#f591id5)" d="M25.987 10.465c-.708-4.859-4.99-8.477-10.041-8.477S6.624 5.606 5.905 10.465L3.965 27.52c-.175 1.14.595 2.29 1.776 2.44c1.026.13 1.574.092 2.885-.96c1.345-1.31 3.532-1.31 4.876 0c1.345 1.31 3.532 1.31 4.877 0c1.345-1.31 3.532-1.31 4.877 0c.719.7 1.663 1.02 2.597.98c1.294-.06 2.249-1.23 2.064-2.48l-1.93-17.035Z"/><path fill="url(#f591id6)" fill-opacity=".75" d="M25.987 10.465c-.708-4.859-4.99-8.477-10.041-8.477S6.624 5.606 5.905 10.465L3.965 27.52c-.175 1.14.595 2.29 1.776 2.44c1.026.13 1.574.092 2.885-.96c1.345-1.31 3.532-1.31 4.876 0c1.345 1.31 3.532 1.31 4.877 0c1.345-1.31 3.532-1.31 4.877 0c.719.7 1.663 1.02 2.597.98c1.294-.06 2.249-1.23 2.064-2.48l-1.93-17.035Z"/><path fill="url(#f591idf)" d="M25.987 10.465c-.708-4.859-4.99-8.477-10.041-8.477S6.624 5.606 5.905 10.465L3.965 27.52c-.175 1.14.595 2.29 1.776 2.44c1.026.13 1.574.092 2.885-.96c1.345-1.31 3.532-1.31 4.876 0c1.345 1.31 3.532 1.31 4.877 0c1.345-1.31 3.532-1.31 4.877 0c.719.7 1.663 1.02 2.597.98c1.294-.06 2.249-1.23 2.064-2.48l-1.93-17.035Z"/><g filter="url(#f591idn)"><path fill="url(#f591idg)" d="M27.063 27.812a4.566 4.566 0 0 1-4.038-1.75l-1.544-1.991a1.525 1.525 0 0 0-2.326-.1l-2.544 2.756a2 2 0 0 1-2.662.249l-.542-.402a4 4 0 0 0-4.625-.103L6.7 27.878a1 1 0 0 1-1.43-.334l-.768-1.351l-.125 1c-.17 1.11.48 2.08 1.63 2.225c1 .127 1.533.09 2.81-.934a3.426 3.426 0 0 1 4.749 0c1.31 1.275 3.447 1.344 4.757.068c1.734-1.297 3.437-1.101 4.742-.068c.7.681 1.62.993 2.53.954c.455-.02 1.186-.407 1.468-1.626Z"/><path fill="url(#f591idh)" d="M27.063 27.812a4.566 4.566 0 0 1-4.038-1.75l-1.544-1.991a1.525 1.525 0 0 0-2.326-.1l-2.544 2.756a2 2 0 0 1-2.662.249l-.542-.402a4 4 0 0 0-4.625-.103L6.7 27.878a1 1 0 0 1-1.43-.334l-.768-1.351l-.125 1c-.17 1.11.48 2.08 1.63 2.225c1 .127 1.533.09 2.81-.934a3.426 3.426 0 0 1 4.749 0c1.31 1.275 3.447 1.344 4.757.068c1.734-1.297 3.437-1.101 4.742-.068c.7.681 1.62.993 2.53.954c.455-.02 1.186-.407 1.468-1.626Z"/></g><g filter="url(#f591ido)"><path fill="url(#f591id7)" fill-opacity=".75" d="M14.919 20.714c3.294 0 3.82-4.104 3.922-4.927c.078-.667-.275-1.004-.66-1.232c-.384-.227-1.537-.439-3.262-.439c-1.726 0-1.306-1.447-1.698-1.22c-.392.227-1.52-1.587-2.094 0c-.654 1.813-1.705 7.818 3.792 7.818Z"/></g><path fill="url(#f591id8)" d="M15.989 17c-5.008 0-5.008-5.009-5.008-5.009h10.016S20.997 17 15.99 17Z"/><path fill="url(#f591id9)" d="M16 19.146c3.006 0 3.485-3.005 3.578-3.756c.072-.608-.25-.916-.6-1.123c-.351-.208-1.403-.401-2.977-.401c-1.574 0-2.619.193-2.976.4c-.358.208-.68.516-.601 1.124c.093.751.572 3.756 3.577 3.756Z"/><g filter="url(#f591idp)" opacity=".5"><path stroke="#fff" d="M17.42 17.357c.716-.357 1.432-1.073 1.432-2.146"/></g><path fill="url(#f591idi)" d="M12.065 9.966a.518.518 0 1 1-.463-.926l1.143-.572h1.679a.518.518 0 0 1-.287.462l-2.072 1.036Z"/><path fill="url(#f591idj)" d="M12.065 6.97a.518.518 0 1 0-.463.926l1.143.572h1.679a.518.518 0 0 0-.287-.462L12.065 6.97Z"/><path fill="url(#f591ida)" d="M19.497 9.982c.829 0 1.5-.662 1.5-1.478s-.671-1.477-1.5-1.477c-.828 0-1.5.661-1.5 1.477a1.49 1.49 0 0 0 1.5 1.478Z"/><g filter="url(#f591idq)"><path fill="url(#f591idk)" d="m12.69 12.177l10.376 14.795c-1.438-1.375-1.814-.795-3.751.705c-1.938 1.5-4 2.313-7.25 0c-1.705-1.213-3.98.209-5 1.438l5.625-16.938Z"/></g><g filter="url(#f591idr)"><path stroke="url(#f591idl)" stroke-linecap="round" stroke-width="1.1" d="m24.188 20.813l1.875 8.437"/></g></g><defs><radialGradient id="f591id0" cx="0" cy="0" r="1" gradientTransform="matrix(-1.77 7.12501 -8.61844 -2.141 7.69 12.615)" gradientUnits="userSpaceOnUse"><stop offset=".213" stop-color="#F2F0F4"/><stop offset=".887" stop-color="#D1BBE0"/></radialGradient><radialGradient id="f591id1" cx="0" cy="0" r="1" gradientTransform="matrix(2.219 3.40625 -3.8651 2.5179 1.94 11.084)" gradientUnits="userSpaceOnUse"><stop stop-color="#FFD099"/><stop offset="1" stop-color="#E5C9C5" stop-opacity="0"/></radialGradient><radialGradient id="f591id2" cx="0" cy="0" r="1" gradientTransform="rotate(57.779 .804 36.313) scale(4.39571 11.2313)" gradientUnits="userSpaceOnUse"><stop stop-color="#D1BBE0"/><stop offset=".885" stop-color="#F2F0F4"/></radialGradient><radialGradient id="f591id3" cx="0" cy="0" r="1" gradientTransform="rotate(128.033 9.74 9.458) scale(28.4041 26.7477)" gradientUnits="userSpaceOnUse"><stop offset=".213" stop-color="#F2F0F4"/><stop offset=".887" stop-color="#D1BBE0"/></radialGradient><radialGradient id="f591id4" cx="0" cy="0" r="1" gradientTransform="matrix(-10.24999 24.31245 -39.3861 -16.60495 17.75 11.5)" gradientUnits="userSpaceOnUse"><stop offset=".78" stop-color="#CB9DEB" stop-opacity="0"/><stop offset=".834" stop-color="#CB9DEB" stop-opacity=".75"/></radialGradient><radialGradient id="f591id5" cx="0" cy="0" r="1" gradientTransform="rotate(88.694 2.493 17.005) scale(19.1925 42.634)" gradientUnits="userSpaceOnUse"><stop offset=".768" stop-color="#CB9DEB" stop-opacity="0"/><stop offset=".897" stop-color="#CB9DEB" stop-opacity=".75"/></radialGradient><radialGradient id="f591id6" cx="0" cy="0" r="1" gradientTransform="matrix(-3.00014 -22.49996 24.1782 -3.22391 16.815 20.99)" gradientUnits="userSpaceOnUse"><stop offset=".677" stop-color="#D4CDCC" stop-opacity="0"/><stop offset=".984" stop-color="#D4CDCC"/></radialGradient><radialGradient id="f591id7" cx="0" cy="0" r="1" gradientTransform="matrix(10.95084 -8.18184 7.25729 9.71338 5.66 24.99)" gradientUnits="userSpaceOnUse"><stop offset=".573" stop-color="#C8B1D8" stop-opacity="0"/><stop offset="1" stop-color="#B9A4C8"/></radialGradient><radialGradient id="f591id8" cx="0" cy="0" r="1" gradientTransform="matrix(0 -5.2478 10.4956 0 15.989 18.113)" gradientUnits="userSpaceOnUse"><stop stop-color="#F70A8D"/><stop offset="1" stop-color="#89029C"/></radialGradient><radialGradient id="f591id9" cx="0" cy="0" r="1" gradientTransform="rotate(-93.013 17.596 2.176) scale(6.80639 11.8324)" gradientUnits="userSpaceOnUse"><stop stop-color="#FF1C4A"/><stop offset=".766" stop-color="#FF2B8F"/><stop offset=".864" stop-color="#BB0773"/><stop offset=".886" stop-color="#9F0762"/></radialGradient><radialGradient id="f591ida" cx="0" cy="0" r="1" gradientTransform="matrix(-1.28126 1.50846 -1.23452 -1.04858 19.92 8.075)" gradientUnits="userSpaceOnUse"><stop stop-color="#664D5F"/><stop offset=".691" stop-color="#482641"/><stop offset="1" stop-color="#3E2338"/></radialGradient><linearGradient id="f591idb" x1=".315" x2="5.98" y1="12.988" y2="16.131" gradientUnits="userSpaceOnUse"><stop offset=".392" stop-color="#D4CDCC" stop-opacity="0"/><stop offset=".984" stop-color="#D4CDCC"/></linearGradient><linearGradient id="f591idc" x1="4.268" x2="4.252" y1="15.677" y2="12.412" gradientUnits="userSpaceOnUse"><stop offset=".736" stop-color="#D4CDCC" stop-opacity="0"/><stop offset=".917" stop-color="#D4CDCC"/></linearGradient><linearGradient id="f591idd" x1="28.221" x2="28.284" y1="13.927" y2="10.927" gradientUnits="userSpaceOnUse"><stop offset=".174" stop-color="#D4CDCC" stop-opacity="0"/><stop offset=".644" stop-color="#D4CDCC"/></linearGradient><linearGradient id="f591ide" x1="28.096" x2="30.159" y1="14.396" y2="16.302" gradientUnits="userSpaceOnUse"><stop offset=".174" stop-color="#D4CDCC" stop-opacity="0"/><stop offset=".644" stop-color="#D4CDCC"/></linearGradient><linearGradient id="f591idf" x1="13.44" x2="-.659" y1="16.427" y2="12.226" gradientUnits="userSpaceOnUse"><stop stop-color="#E5C9C5" stop-opacity="0"/><stop offset="1" stop-color="#FFD099"/></linearGradient><linearGradient id="f591idg" x1="18.136" x2="29.55" y1="24.358" y2="30.081" gradientUnits="userSpaceOnUse"><stop offset=".62" stop-color="#CB9DEB" stop-opacity="0"/><stop offset="1" stop-color="#CB9DEB"/></linearGradient><linearGradient id="f591idh" x1="17.09" x2="17.622" y1="23.387" y2="33.669" gradientUnits="userSpaceOnUse"><stop offset=".302" stop-color="#CB9DEB" stop-opacity="0"/><stop offset=".865" stop-color="#CB9DEB"/></linearGradient><linearGradient id="f591idi" x1="12.651" x2="11.315" y1="10.403" y2="7.634" gradientUnits="userSpaceOnUse"><stop offset=".25" stop-color="#482641"/><stop offset=".406" stop-color="#503A4A"/><stop offset=".511" stop-color="#482641"/></linearGradient><linearGradient id="f591idj" x1="11.761" x2="12.999" y1="8.541" y2="6.112" gradientUnits="userSpaceOnUse"><stop offset=".25" stop-color="#482641"/><stop offset=".406" stop-color="#503A4A"/><stop offset=".511" stop-color="#482641"/></linearGradient><linearGradient id="f591idk" x1="15.744" x2="15.784" y1="12.802" y2="35.24" gradientUnits="userSpaceOnUse"><stop offset=".362" stop-color="#CB9DEB" stop-opacity="0"/><stop offset="1" stop-color="#CB9DEB"/></linearGradient><linearGradient id="f591idl" x1="23.954" x2="25.579" y1="24.141" y2="27.453" gradientUnits="userSpaceOnUse"><stop stop-color="#fff" stop-opacity="0"/><stop offset="1" stop-color="#fff"/></linearGradient><filter id="f591idm" width="2.001" height="2.001" x="28.487" y="12.509" color-interpolation-filters="sRGB" filterUnits="userSpaceOnUse"><feFlood flood-opacity="0" result="BackgroundImageFix"/><feBlend in="SourceGraphic" in2="BackgroundImageFix" result="shape"/><feGaussianBlur result="effect1_foregroundBlur_6894_5260" stdDeviation=".375"/></filter><filter id="f591idn" width="24.712" height="7.996" x="3.351" y="22.48" color-interpolation-filters="sRGB" filterUnits="userSpaceOnUse"><feFlood flood-opacity="0" result="BackgroundImageFix"/><feBlend in="SourceGraphic" in2="BackgroundImageFix" result="shape"/><feGaussianBlur result="effect1_foregroundBlur_6894_5260" stdDeviation=".5"/></filter><filter id="f591ido" width="11.262" height="11.476" x="9.09" y="10.739" color-interpolation-filters="sRGB" filterUnits="userSpaceOnUse"><feFlood flood-opacity="0" result="BackgroundImageFix"/><feBlend in="SourceGraphic" in2="BackgroundImageFix" result="shape"/><feGaussianBlur result="effect1_foregroundBlur_6894_5260" stdDeviation=".75"/></filter><filter id="f591idp" width="4.155" height="4.594" x="16.197" y="14.211" color-interpolation-filters="sRGB" filterUnits="userSpaceOnUse"><feFlood flood-opacity="0" result="BackgroundImageFix"/><feBlend in="SourceGraphic" in2="BackgroundImageFix" result="shape"/><feGaussianBlur result="effect1_foregroundBlur_6894_5260" stdDeviation=".5"/></filter><filter id="f591idq" width="20.001" height="20.946" x="5.065" y="10.177" color-interpolation-filters="sRGB" filterUnits="userSpaceOnUse"><feFlood flood-opacity="0" result="BackgroundImageFix"/><feBlend in="SourceGraphic" in2="BackgroundImageFix" result="shape"/><feGaussianBlur result="effect1_foregroundBlur_6894_5260" stdDeviation="1"/></filter><filter id="f591idr" width="7.975" height="14.538" x="21.137" y="17.762" color-interpolation-filters="sRGB" filterUnits="userSpaceOnUse"><feFlood flood-opacity="0" result="BackgroundImageFix"/><feBlend in="SourceGraphic" in2="BackgroundImageFix" result="shape"/><feGaussianBlur result="effect1_foregroundBlur_6894_5260" stdDeviation="1.25"/></filter><clipPath id="f591ids"><path fill="#fff" d="M0 0h32v32H0z"/></clipPath></defs></g></svg>