<?xml version="1.0" standalone="no"?><!DOCTYPE svg PUBLIC "-//W3C//DTD SVG 1.1//EN"
  "http://www.w3.org/Graphics/SVG/1.1/DTD/svg11.dtd">
<svg t="1679389076660" class="icon" viewBox="0 0 1000 1024" version="1.1" xmlns="http://www.w3.org/2000/svg" p-id="2714"
     xmlns:xlink="http://www.w3.org/1999/xlink" width="300" height="300">
  <path
    d="M497.6 779h-76.9v-48.8c90.9-14.4 160.6-93.3 160.6-188.2 0-84-54.7-155.5-130.3-180.8-3 11-4.5 22.6-4.5 34.3 0 10.3 1.2 20.4 3.5 30.1 42.3 21.6 71.4 65.7 71.4 116.4 0 72-58.6 130.6-130.6 130.6S260.2 614 260.2 542c0-70.8 56.7-128.7 127-130.6-0.4-5.3-0.7-10.6-0.7-16 0-15 1.7-29.8 5.1-44.1h-0.9c-105.1 0-190.6 85.5-190.6 190.6 0 94.9 69.7 173.8 160.6 188.2V779h-76.9c-16.6 0-30 13.4-30 30s13.4 30 30 30h76.9v50.5c0 16.6 13.4 30 30 30s30-13.4 30-30V839h76.9c16.6 0 30-13.4 30-30s-13.4-30-30-30z"
    fill="#818181" p-id="2715"></path>
  <path
    d="M880.9 128.3c0-16.5-13.4-29.9-29.9-30L700.1 98h-0.1c-16.5 0-30 13.4-30 29.9 0 16.6 13.4 30 29.9 30.1l76.6 0.2-85 85c-31.9-24-71.6-38.3-114.5-38.3-105.1 0-190.6 85.5-190.6 190.6S472 586.1 577.1 586.1s190.6-85.5 190.6-190.6c0-40.6-12.7-78.2-34.4-109.1l87.6-87.6 0.1 80.6c0 16.6 13.4 30 30 30s30-13.5 30-30l-0.1-151.1zM577.1 526.1c-72 0-130.6-58.6-130.6-130.6s58.6-130.6 130.6-130.6 130.6 58.6 130.6 130.6-58.6 130.6-130.6 130.6z"
    fill="#000002" p-id="2716"></path>
</svg>
