<?xml version="1.0" standalone="no"?><!DOCTYPE svg PUBLIC "-//W3C//DTD SVG 1.1//EN" "http://www.w3.org/Graphics/SVG/1.1/DTD/svg11.dtd"><svg t="1718595695407" class="icon" viewBox="0 0 1024 1024" version="1.1" xmlns="http://www.w3.org/2000/svg" p-id="8462" xmlns:xlink="http://www.w3.org/1999/xlink" width="200" height="200"><path d="M386.048 774.144c7.508992-19.796992 19.627008-35.668992 36.352-47.616 16.724992-11.947008 35.668992-17.92 56.832-17.92s40.107008 5.972992 56.832 17.92 28.843008 27.819008 36.352 47.616h332.8v65.536H572.416c-7.508992 19.796992-19.627008 35.668992-36.352 47.616-16.724992 11.947008-35.668992 17.92-56.832 17.92s-40.107008-5.972992-56.832-17.92-28.843008-27.819008-36.352-47.616H118.784v-65.536h267.264z m196.608-294.912c7.508992-19.796992 19.627008-35.668992 36.352-47.616 16.724992-11.947008 35.668992-17.92 56.832-17.92s40.107008 5.972992 56.832 17.92 28.843008 27.819008 36.352 47.616h136.192v65.536H769.024c-7.508992 19.796992-19.627008 35.668992-36.352 47.616-16.724992 11.947008-35.668992 17.92-56.832 17.92s-40.107008-5.972992-56.832-17.92-28.843008-27.819008-36.352-47.616H118.784v-65.536h463.872zM254.976 184.32c7.508992-19.796992 19.627008-35.668992 36.352-47.616 16.724992-11.947008 35.668992-17.92 56.832-17.92s40.107008 5.972992 56.832 17.92 28.843008 27.819008 36.352 47.616h463.872v65.536H441.344c-7.508992 19.796992-19.627008 35.668992-36.352 47.616-16.724992 11.947008-35.668992 17.92-56.832 17.92s-40.107008-5.972992-56.832-17.92-28.843008-27.819008-36.352-47.616H118.784v-65.536h136.192z" p-id="8463"></path></svg>