<?xml version="1.0" standalone="no"?><!DOCTYPE svg PUBLIC "-//W3C//DTD SVG 1.1//EN" "http://www.w3.org/Graphics/SVG/1.1/DTD/svg11.dtd"><svg t="1680969450583" class="icon" viewBox="0 0 1024 1024" version="1.1" xmlns="http://www.w3.org/2000/svg" p-id="11960" xmlns:xlink="http://www.w3.org/1999/xlink" width="200" height="200"><path d="M1024.001 481.719L541.771-0.001H0.001l1024 1024v-542.28z" fill="#F36D61" p-id="11961"></path><path d="M575.721 221.799l-51.81-52.63-149.2 152.52-38.86-39.37 149.2-152.63-51.51-52.43 31.49-32.28 141.9 144.54-31.18 32.28h-0.03z m-45.75 78.54a136.476 136.476 0 0 1 93.93-45.34c71.19 0.77 128.57 58.55 128.84 129.74a137.103 137.103 0 0 1-42.6 91.9 135.291 135.291 0 0 1-93.11 44.93c-34.45 0.92-67.58-13.28-90.67-38.86a121.515 121.515 0 0 1-37.66-90.68 134.305 134.305 0 0 1 41.27-91.72v0.03z m42.8 39.17a99.88 99.88 0 0 0-30.16 56.99 60.695 60.695 0 0 0 18.13 52.74 59.168 59.168 0 0 0 51.2 19.53 95.667 95.667 0 0 0 55.65-31.18 105.844 105.844 0 0 0 32.38-58.19c3.74-35.55-22.05-67.39-57.59-71.13-0.04 0-0.07-0.01-0.11-0.01-4.31-0.46-8.65-0.46-12.95 0a96.428 96.428 0 0 0-56.55 31.25z m189.88 248.98l-62.95 64.36-38.6-39.27 180.76-184.7 62.34 63.46c45.04 45.84 48.45 88.29 10.24 127.33a76.293 76.293 0 0 1-64.77 24.7 104.998 104.998 0 0 1-67-35.64l-20.15-20.25h0.13z m87.86-89.78l-58.29 59.62 16.69 17c22.66 23.07 43.82 24.49 63.46 4.25 19.12-19.74 17.61-40.96-4.76-63.77l-17.1-17.1z" fill="#FFFFFF" p-id="11962"></path></svg>